# xmcd CD database file
#
# Track frame offsets:
#	150
#	13615
#	24047
#	38040
#	53062
#	64655
#	74290
#	86187
#	99440
#	111502
#	128787
#	142887
#
# Disc length: 2017 seconds
#
# Revision: 8
# Processed by: cddbd v1.5.2PL0 Copyright (c) Steve Scherf et al.
# Submitted via: CDex 1.70beta3
#
DISCID=9907df0c
DTITLE=WEEZER - ï¼'he Green Album
DYEAR=2001
DGENRE=Loud Rock
TTITLE0=Don't Let Go
TTITLE1=Photograph
TTITLE2=Hash Pipe
TTITLE3=Island In The Sun
TTITLE4=Crab
TTITLE5=Knock-Down Drag-Out
TTITLE6=Smile
TTITLE7=Simple Pages
TTITLE8=Glorious Day
TTITLE9=O Girlfriend
TTITLE10=The Christmas Song (Bonus Tracks)
TTITLE11=I Do (Bonus Tracks)
EXTD=YEAR: 2001
EXTT0=
EXTT1=
EXTT2=
EXTT3=
EXTT4=
EXTT5=
EXTT6=
EXTT7=
EXTT8=
EXTT9=
EXTT10=
EXTT11=
PLAYORDER=
